<svg xmlns="http://www.w3.org/2000/svg" viewBox="0 0 512 512">
<defs>
  <linearGradient id="bg" x1="0" y1="0" x2="1" y2="1"><stop stop-color="#0c4a6e"/><stop offset="1" stop-color="#0f172a"/></linearGradient>
  <linearGradient id="land" x1="0" y1="0" x2="1" y2="1"><stop stop-color="#34d399"/><stop offset="1" stop-color="#15803d"/></linearGradient>
</defs>
<rect width="512" height="512" rx="112" fill="url(#bg)"/>
<circle cx="256" cy="210" r="136" fill="#2f8fe6"/>
<path d="M145 165c28-39 72-67 121-72 69-7 126 29 148 86-23-9-42-7-59 5-28 19-52 20-77 2-29-22-54-21-79 3-17 16-34 16-54-4z" fill="url(#land)"/>
<path d="M127 233c34 12 63 8 87-12 23-19 48-18 76 5 23 18 48 21 76 8 18-9 37-11 58-5-12 66-70 116-139 119-78 4-143-46-158-115z" fill="url(#land)"/>
<path d="M147 286c38-24 79-39 124-46 45-7 88-3 127 12" fill="none" stroke="#fff" stroke-width="12" stroke-linecap="round"/>
<path d="M344 118c0-26 21-47 47-47s47 21 47 47c0 35-47 82-47 82s-47-47-47-82z" fill="#ef4444" stroke="#fff" stroke-width="7"/>
<circle cx="391" cy="118" r="16" fill="#fff"/>
<circle cx="157" cy="378" r="46" fill="none" stroke="#fff" stroke-width="18"/>
<circle cx="358" cy="378" r="46" fill="none" stroke="#fff" stroke-width="18"/>
<path d="M157 378l61-89h70l41 89m-111-89-33 89h91l35-60h47m-125-55h61l29 31" fill="none" stroke="#fff" stroke-width="18" stroke-linecap="round" stroke-linejoin="round"/>
<path d="M267 253l34-24 30 14" fill="none" stroke="#fff" stroke-width="15" stroke-linecap="round"/>
<path d="M109 454h294" stroke="#fff" stroke-opacity=".18" stroke-width="3"/>
<text x="256" y="480" text-anchor="middle" font-family="Arial,sans-serif" font-size="29" font-weight="700" fill="#fff">MAPPA VIAGGI</text>
</svg>